<svg width="217" height="254" viewBox="0 0 217 254" fill="none" xmlns="http://www.w3.org/2000/svg">
<path d="M38.4309 254C36.4158 254.014 34.4468 253.398 32.7992 252.239C31.1516 251.08 29.908 249.436 29.2423 247.536C28.454 245.328 28.4817 242.912 29.3202 240.723C30.1587 238.534 31.7529 236.716 33.8151 235.598C46.1743 228.811 54.1334 219.201 57.5414 207.027C57.7555 206.197 57.6823 205.32 57.3338 204.538C56.9852 203.755 56.3818 203.114 55.6217 202.717C34.6638 191.062 18.1723 172.786 8.73477 150.756C-0.702743 128.727 -2.55223 104.191 3.47651 80.9976C9.50525 57.8047 23.0711 37.2674 42.0454 22.6082C61.0198 7.9489 84.3289 -0.00281253 108.316 0.000682274C123.144 -0.0519218 137.824 2.93788 151.449 8.78485C165.073 14.6318 177.35 23.2114 187.519 33.9919C197.688 44.7724 205.533 57.5243 210.567 71.4573C215.601 85.3903 217.718 100.208 216.786 114.991C215.853 129.775 211.892 144.21 205.147 157.401C198.402 170.593 189.017 182.26 177.574 191.681C166.131 201.101 152.873 208.074 138.622 212.166C124.371 216.259 109.431 217.384 94.7269 215.473C94.0443 215.366 93.3453 215.455 92.7114 215.73C92.0774 216.005 91.5347 216.454 91.1465 217.025C81.9579 231.203 65.673 249.065 40.3506 253.655C39.7228 253.829 39.0801 253.945 38.4309 254Z" fill="white"/>
</svg>
