<svg width="22" height="22" viewBox="0 0 22 22" fill="none" xmlns="http://www.w3.org/2000/svg">
<g clip-path="url(#clip0_69_92)">
<rect width="21.457" height="21.457" transform="translate(0.410599 0.410599)" fill="#1877F2"/>
<path d="M21.4205 11.2015C21.4205 5.52324 16.8174 0.92008 11.1391 0.92008C5.46077 0.92008 0.857613 5.52324 0.857613 11.2015C0.857613 16.3333 4.61739 20.5868 9.53259 21.3581V14.1735H6.92207V11.2015H9.53259V8.9364C9.53259 6.35961 11.0675 4.93627 13.416 4.93627C14.5409 4.93627 15.7175 5.13708 15.7175 5.13708V7.66729H14.4211C13.1439 7.66729 12.7455 8.45982 12.7455 9.2729V11.2015H15.597L15.1412 14.1735H12.7455V21.3581C17.6607 20.5868 21.4205 16.3333 21.4205 11.2015Z" fill="white"/>
</g>
<defs>
<clipPath id="clip0_69_92">
<rect width="21.457" height="21.457" fill="white" transform="translate(0.410599 0.410599)"/>
</clipPath>
</defs>
</svg>
