<svg width="22" height="22" viewBox="0 0 22 22" fill="none" xmlns="http://www.w3.org/2000/svg">
<rect width="21.457" height="21.457" transform="translate(0.410599 0.410583)" fill="white"/>
<path fill-rule="evenodd" clip-rule="evenodd" d="M21.0093 11.3727C21.0093 10.6437 20.9438 9.94268 20.8223 9.26971H11.1391V13.2468H16.6724C16.434 14.532 15.7097 15.6208 14.6208 16.3499V18.9296H17.9435C19.8877 17.1397 21.0093 14.5039 21.0093 11.3727Z" fill="#4285F4"/>
<path fill-rule="evenodd" clip-rule="evenodd" d="M11.139 21.4204C13.915 21.4204 16.2423 20.4997 17.9435 18.9295L14.6207 16.3498C13.7 16.9666 12.5223 17.3312 11.139 17.3312C8.46115 17.3312 6.19456 15.5226 5.38606 13.0924H1.95112V15.7562C3.64289 19.1164 7.11989 21.4204 11.139 21.4204Z" fill="#34A853"/>
<path fill-rule="evenodd" clip-rule="evenodd" d="M5.38613 13.0926C5.1805 12.4757 5.06366 11.8168 5.06366 11.1391C5.06366 10.4615 5.1805 9.80254 5.38613 9.18565V6.52182H1.95119C1.25485 7.90982 0.857613 9.48008 0.857613 11.1391C0.857613 12.7982 1.25485 14.3684 1.95119 15.7564L5.38613 13.0926Z" fill="#FBBC05"/>
<path fill-rule="evenodd" clip-rule="evenodd" d="M11.139 4.94682C12.6485 4.94682 14.0038 5.46557 15.0693 6.48437L18.0182 3.53546C16.2377 1.8764 13.9103 0.857605 11.139 0.857605C7.11989 0.857605 3.64289 3.16159 1.95112 6.52175L5.38606 9.18559C6.19456 6.75542 8.46115 4.94682 11.139 4.94682Z" fill="#EA4335"/>
</svg>
