<svg width="222" height="53" viewBox="0 0 222 53" fill="none" xmlns="http://www.w3.org/2000/svg">
<path d="M3.93404 52.0931C3.41802 52.0969 2.9067 51.9949 2.43168 51.7933C1.95666 51.5917 1.52805 51.2948 1.17234 50.921C0.796602 50.5635 0.498594 50.1324 0.296927 49.6546C0.0952609 49.1768 -0.00573333 48.6625 0.000251227 48.144V5.96781C-0.00555831 4.87703 0.386665 3.82157 1.1034 2.99928C1.43835 2.57826 1.85642 2.23073 2.33155 1.97833C2.80669 1.72594 3.32871 1.57409 3.86509 1.53225C7.77717 1.17731 11.5514 0.998556 15.1876 0.996002C21.9521 0.996002 27.0145 2.24981 30.375 4.75742C33.7355 7.26503 35.4145 10.7979 35.412 15.356C35.468 18.4424 34.5366 21.4659 32.7537 23.9858C30.9997 26.4587 28.4942 28.2992 25.6101 29.2334C25.6007 29.2322 25.5912 29.2331 25.5823 29.2361C25.5733 29.2391 25.5652 29.2442 25.5585 29.2508C25.5518 29.2575 25.5468 29.2656 25.5438 29.2746C25.5408 29.2835 25.5399 29.293 25.5411 29.3024C25.5411 29.3943 25.5641 29.4403 25.6101 29.4403C27.8189 30.8218 29.706 33.5375 31.2713 37.5875L35.412 48.4236C35.5734 48.8306 35.6296 49.2718 35.5753 49.7063C35.5211 50.1408 35.3582 50.5546 35.1017 50.9095C34.8752 51.2772 34.5569 51.5796 34.1782 51.7872C33.7994 51.9947 33.3732 52.1001 32.9414 52.0931H30.7887C29.6296 52.1053 28.4956 51.7559 27.5444 51.0933C26.5925 50.4459 25.8677 49.5162 25.4722 48.4351L21.6073 37.7905C20.7774 35.5791 19.8313 34.1299 18.769 33.443C17.7067 32.7561 15.8912 32.4101 13.3223 32.405H10.1469C10.0626 32.3928 9.97656 32.4004 9.89571 32.4273C9.81487 32.4542 9.7414 32.4995 9.68115 32.5598C9.62091 32.62 9.57555 32.6935 9.54868 32.7743C9.52181 32.8552 9.51417 32.9412 9.52637 33.0255V48.144C9.52988 48.6578 9.42995 49.1672 9.23254 49.6416C9.03512 50.1161 8.74426 50.5459 8.37726 50.9056C8.0322 51.2817 7.61241 51.5816 7.14476 51.7861C6.67711 51.9905 6.17192 52.0951 5.66153 52.0931H3.93404ZM9.52637 9.57602V24.5374C9.52637 24.9205 9.73321 25.089 10.1469 25.089H13.5942C21.7861 25.089 25.882 22.1664 25.882 16.3213C25.882 11.1222 22.0849 8.52267 14.4905 8.52267C13.0348 8.52872 11.5816 8.64395 10.1431 8.8674C9.96828 8.88209 9.80611 8.96431 9.69097 9.09661C9.57583 9.22892 9.51678 9.40089 9.52637 9.57602Z" fill="#FFFBE4"/>
<path d="M55.755 52.771C49.726 52.771 45.09 51.1942 41.847 48.0405C38.6039 44.8869 36.9811 40.2509 36.9786 34.1325C36.9786 28.0575 38.4277 23.433 41.326 20.2589C44.2243 17.0848 48.4122 15.4965 53.8896 15.4939C64.1039 15.4939 69.3503 21.2931 69.6286 32.8915C69.6621 33.4113 69.5736 33.9318 69.3701 34.4113C69.1666 34.8908 68.8537 35.3161 68.4565 35.6531C67.6678 36.3818 66.6307 36.7819 65.5569 36.7716H46.7307C46.317 36.7716 46.1561 36.9785 46.2481 37.3921C46.5698 40.4769 47.5912 42.7202 49.3124 44.1221C51.0335 45.524 53.5526 46.2262 56.8697 46.2288C59.2034 46.1896 61.5218 45.8419 63.7643 45.1946C64.1532 45.0805 64.5633 45.0585 64.9622 45.1303C65.3611 45.2021 65.7378 45.3658 66.0625 45.6083C66.4015 45.835 66.6773 46.1441 66.8642 46.5065C67.0511 46.8689 67.143 47.2729 67.1312 47.6805C67.1478 48.6912 66.8195 49.6775 66.2004 50.4767C65.604 51.268 64.7264 51.8 63.749 51.9628C61.1203 52.5132 58.4407 52.7841 55.755 52.771ZM54.0275 21.9136C51.6808 21.9136 49.8741 22.5699 48.6076 23.8824C47.341 25.195 46.5468 27.3004 46.2251 30.1987C46.2141 30.2737 46.2209 30.3502 46.2447 30.4221C46.2686 30.494 46.3089 30.5593 46.3625 30.6129C46.416 30.6665 46.4814 30.7068 46.5533 30.7306C46.6252 30.7545 46.7017 30.7612 46.7766 30.7503H60.3055C60.3805 30.7612 60.4569 30.7545 60.5289 30.7306C60.6008 30.7068 60.6661 30.6665 60.7197 30.6129C60.7732 30.5593 60.8136 30.494 60.8374 30.4221C60.8613 30.3502 60.868 30.2737 60.8571 30.1987C60.6783 24.6753 58.4031 21.9136 54.0314 21.9136H54.0275Z" fill="#FFFBE4"/>
<path d="M76.9638 52.0931C75.9266 52.0734 74.9374 51.6527 74.2039 50.9192C73.4704 50.1857 73.0496 49.1965 73.03 48.1593V4.24034C73.0264 3.72435 73.1285 3.2131 73.3301 2.73811C73.5316 2.26313 73.8284 1.83449 74.2021 1.47864C74.5579 1.10498 74.9866 0.808199 75.4616 0.60661C75.9365 0.405021 76.4478 0.302901 76.9638 0.306552H78.7602C79.2762 0.303128 79.7874 0.40535 80.2623 0.606925C80.7373 0.808501 81.1659 1.10516 81.5219 1.47864C81.8954 1.83463 82.1921 2.26329 82.3936 2.73825C82.5952 3.2132 82.6974 3.72439 82.694 4.24034V48.144C82.6783 49.1845 82.2587 50.1781 81.524 50.915C80.7892 51.6519 79.7968 52.0743 78.7564 52.0931H76.9638Z" fill="#FFFBE4"/>
<path d="M96.8893 52.771C93.7586 52.771 91.1706 51.7496 89.1251 49.7068C87.0797 47.6639 86.0583 45.0056 86.0609 41.7319C86.0609 37.7279 87.593 34.6215 90.6573 32.4127C93.7216 30.2038 98.3985 29.1032 104.688 29.1109H107.519C107.603 29.1231 107.689 29.1154 107.77 29.0886C107.851 29.0617 107.924 29.0163 107.984 28.9561C108.045 28.8958 108.09 28.8224 108.117 28.7415C108.144 28.6607 108.151 28.5747 108.139 28.4904V27.9196C108.139 25.8027 107.628 24.3191 106.607 23.4688C105.586 22.6184 103.795 22.192 101.237 22.1894C98.5683 22.1894 95.301 22.672 91.4349 23.6373C91.0473 23.7551 90.6368 23.7759 90.2394 23.6977C89.842 23.6196 89.4698 23.4449 89.1558 23.1891C88.8255 22.9482 88.5587 22.6305 88.3785 22.2635C88.1984 21.8965 88.1102 21.4911 88.1216 21.0824C88.1135 20.0463 88.4534 19.0373 89.0868 18.2173C89.6823 17.3967 90.574 16.8403 91.5728 16.666C94.8101 15.9146 98.1203 15.5216 101.444 15.4939C107.335 15.4939 111.454 16.5524 113.8 18.6693C116.147 20.7862 117.32 24.4889 117.32 29.7774V48.1401C117.324 48.654 117.224 49.1633 117.027 49.6378C116.829 50.1122 116.538 50.5421 116.171 50.9018C115.827 51.2786 115.407 51.5792 114.939 51.7843C114.472 51.9895 113.966 52.0946 113.456 52.0931H112.69C112.165 52.1011 111.644 52.0034 111.158 51.806C110.671 51.6086 110.23 51.3155 109.859 50.944C109.478 50.5827 109.172 50.1496 108.959 49.6698C108.746 49.1899 108.63 48.6727 108.618 48.1478V47.1825C108.619 47.1732 108.618 47.1637 108.615 47.1547C108.612 47.1458 108.607 47.1377 108.6 47.131C108.594 47.1243 108.586 47.1193 108.577 47.1163C108.568 47.1132 108.558 47.1123 108.549 47.1136C108.457 47.1136 108.411 47.1366 108.411 47.1825C105.607 50.9082 101.767 52.771 96.8893 52.771ZM104.688 34.822C98.1074 34.822 94.8171 36.8469 94.8171 40.8969C94.7598 42.2135 95.2172 43.5008 96.0926 44.486C96.5076 44.9383 97.0154 45.2957 97.5813 45.5337C98.1472 45.7717 98.7578 45.8847 99.3714 45.8649C101.994 45.8649 104.111 45.0478 105.722 43.4135C107.333 41.7792 108.139 39.5359 108.139 36.6835V35.4425C108.151 35.3582 108.144 35.2722 108.117 35.1913C108.09 35.1105 108.045 35.037 107.984 34.9767C107.924 34.9165 107.851 34.8711 107.77 34.8443C107.689 34.8174 107.603 34.8098 107.519 34.822H104.688Z" fill="#FFFBE4"/>
<path d="M122.189 24.2617C121.749 24.2688 121.313 24.1836 120.909 24.0113C120.504 23.8391 120.14 23.5838 119.841 23.2619C119.529 22.9494 119.283 22.5776 119.117 22.1684C118.951 21.7592 118.869 21.3209 118.876 20.8794C118.874 20.4438 118.958 20.012 119.124 19.6091C119.289 19.2062 119.533 18.8402 119.841 18.5321C120.15 18.224 120.516 17.98 120.919 17.8143C121.321 17.6485 121.753 17.5641 122.189 17.5662H125.502C125.586 17.5784 125.672 17.5707 125.753 17.5439C125.834 17.517 125.908 17.4716 125.968 17.4114C126.028 17.3511 126.073 17.2777 126.1 17.1968C126.127 17.116 126.135 17.03 126.123 16.9457V8.38479C126.119 7.87092 126.219 7.36159 126.416 6.88714C126.614 6.41269 126.905 5.98281 127.272 5.6231C127.619 5.24836 128.042 4.9505 128.511 4.74865C128.981 4.54679 129.488 4.44541 129.999 4.45101H131.382C131.898 4.44759 132.409 4.54981 132.884 4.75138C133.359 4.95296 133.787 5.24962 134.143 5.6231C134.517 5.97923 134.813 6.40792 135.015 6.88284C135.216 7.35776 135.319 7.86888 135.316 8.38479V16.9418C135.303 17.0261 135.311 17.1121 135.338 17.193C135.365 17.2738 135.41 17.3473 135.47 17.4076C135.531 17.4678 135.604 17.5132 135.685 17.54C135.766 17.5669 135.852 17.5745 135.936 17.5623H143.804C144.245 17.5564 144.683 17.6387 145.092 17.8045C145.501 17.9703 145.873 18.2161 146.186 18.5276C146.508 18.8274 146.763 19.1912 146.935 19.5956C147.107 20.0001 147.193 20.4361 147.186 20.8756C147.177 21.7698 146.818 22.6249 146.185 23.2573C145.553 23.8896 144.698 24.2488 143.804 24.2578H135.925C135.511 24.2578 135.304 24.4417 135.304 24.8094V38.7519C135.304 41.7447 135.626 43.6778 136.269 44.5511C136.913 45.4244 138.247 45.8611 140.272 45.8611C141.103 45.8784 141.934 45.8323 142.758 45.7232C143.612 45.6161 144.476 45.8394 145.171 46.3475C145.502 46.5797 145.77 46.8908 145.951 47.2527C146.131 47.6145 146.219 48.0156 146.205 48.4198C146.211 49.4194 145.856 50.3876 145.206 51.147C144.91 51.5268 144.541 51.8424 144.119 52.0742C143.697 52.3061 143.233 52.4494 142.754 52.4953C140.729 52.6791 139.211 52.7711 138.2 52.7711C133.736 52.7711 130.607 51.816 128.812 49.9059C127.016 47.9959 126.123 44.5792 126.13 39.6559V24.8132C126.13 24.4455 125.923 24.2617 125.51 24.2617H122.189Z" fill="#FFFBE4"/>
<path d="M165.529 15.4939C160.052 15.4939 155.864 17.0823 152.966 20.2589C150.068 23.4356 148.618 28.0601 148.618 34.1325C148.618 40.2611 150.241 44.8971 153.487 48.0405C156.732 51.184 161.366 52.7608 167.387 52.771C170.079 52.7789 172.763 52.5016 175.396 51.9437C176.373 51.7818 177.251 51.2512 177.848 50.4613C178.467 49.6622 178.795 48.6759 178.779 47.6652C178.794 47.2574 178.707 46.8523 178.523 46.4878C178.339 46.1233 178.066 45.8115 177.729 45.5814C177.404 45.3389 177.028 45.1753 176.629 45.1035C176.23 45.0317 175.82 45.0537 175.431 45.1678C173.188 45.815 170.87 46.1628 168.536 46.202C165.217 46.202 162.697 45.4997 160.979 44.0953C159.26 42.6908 158.239 40.4475 157.915 37.3653C157.823 36.9516 157.984 36.7448 158.397 36.7448H177.243C178.314 36.7592 179.351 36.3648 180.142 35.6416C180.539 35.3044 180.852 34.8791 181.055 34.3996C181.259 33.9202 181.348 33.3998 181.314 32.88C181.008 21.2893 175.746 15.4939 165.529 15.4939ZM163.281 29.3292C163.281 29.6848 163.14 30.0258 162.888 30.2772C162.637 30.5286 162.296 30.6698 161.94 30.6698C161.585 30.6698 161.244 30.5286 160.992 30.2772C160.741 30.0258 160.6 29.6848 160.6 29.3292V25.9776C160.6 25.6221 160.741 25.2811 160.992 25.0297C161.244 24.7783 161.585 24.637 161.94 24.637C162.296 24.637 162.637 24.7783 162.888 25.0297C163.14 25.2811 163.281 25.6221 163.281 25.9776V29.3292ZM172.857 29.3292C172.857 29.6848 172.716 30.0258 172.464 30.2772C172.213 30.5286 171.872 30.6698 171.516 30.6698C171.161 30.6698 170.82 30.5286 170.568 30.2772C170.317 30.0258 170.176 29.6848 170.176 29.3292V25.9776C170.176 25.6221 170.317 25.2811 170.568 25.0297C170.82 24.7783 171.161 24.637 171.516 24.637C171.872 24.637 172.213 24.7783 172.464 25.0297C172.716 25.2811 172.857 25.6221 172.857 25.9776V29.3292Z" fill="#FFFBE4"/>
<path d="M189.638 45.1524C189.28 45.155 188.93 45.0455 188.638 44.8395C188.345 44.6335 188.124 44.3411 188.006 44.0033C187.866 43.6109 187.871 43.1814 188.02 42.7922C188.169 42.4031 188.452 42.08 188.818 41.8813C191.013 40.6748 192.426 38.9664 193.031 36.8023C193.069 36.6548 193.056 36.4989 192.995 36.3598C192.933 36.2207 192.826 36.1066 192.691 36.0362C188.969 33.9642 186.04 30.7154 184.364 26.7993C182.688 22.8832 182.36 18.5215 183.43 14.3986C184.501 10.2757 186.91 6.62487 190.28 4.01896C193.649 1.41304 197.788 -0.000499971 202.048 0.000121285C204.681 -0.00922992 207.288 0.522255 209.708 1.56164C212.127 2.60103 214.307 4.12618 216.113 6.04259C217.919 7.959 219.312 10.2258 220.206 12.7027C221.1 15.1795 221.476 17.8135 221.311 20.4415C221.145 23.0695 220.442 25.6355 219.244 27.9805C218.046 30.3256 216.379 32.3997 214.347 34.0743C212.315 35.7489 209.961 36.9884 207.43 37.7159C204.899 38.4434 202.246 38.6435 199.635 38.3038C199.514 38.2847 199.39 38.3006 199.277 38.3494C199.164 38.3982 199.068 38.478 198.999 38.5795C197.367 41.0999 194.475 44.2753 189.979 45.0912C189.867 45.1221 189.753 45.1427 189.638 45.1524ZM202.048 2.29834C198.3 2.30222 194.66 3.54923 191.697 5.84399C188.734 8.13875 186.616 11.3516 185.674 14.9792C184.733 18.6068 185.022 22.4442 186.495 25.8901C187.969 29.336 190.544 32.1958 193.817 34.0214C194.399 34.3417 194.858 34.8484 195.118 35.4603C195.379 36.0722 195.426 36.7539 195.253 37.396C194.829 38.9387 194.04 40.3573 192.955 41.5328C194.616 40.4501 196.021 39.0189 197.072 37.3385C197.375 36.8726 197.804 36.5025 198.31 36.2712C198.815 36.0399 199.376 35.9571 199.926 36.0324C202.222 36.3229 204.552 36.14 206.774 35.4949C208.996 34.8498 211.062 33.7562 212.845 32.2816C214.628 30.807 216.09 28.9826 217.141 26.9211C218.191 24.8596 218.808 22.6047 218.953 20.2955C219.099 17.9863 218.769 15.6719 217.985 13.495C217.201 11.3181 215.98 9.32492 214.395 7.6385C212.811 5.95207 210.898 4.60816 208.775 3.6897C206.651 2.77124 204.362 2.29771 202.048 2.29834Z" fill="#FFFBE4"/>
</svg>
